# xmcd CD database file
#
# Track frame offsets:
#	150
#	19595
#	37824
#	55690
#	71917
#	88813
#	108012
#	125270
#	144510
#	160020
#	180334
#
# Disc length: 2620 seconds
#
# Revision: 0
# Processed by: cddbd v1.5.1PL0 Copyright (c) Steve Scherf et al.
# Submitted via: CDex 1.51
#
DISCID=810a3a0b
DTITLE=Isaac Delgado - Prohibido
DYEAR=2005
DGENRE=Salsa
TTITLE0=Cántame Como Ayer
TTITLE1=Prohibido
TTITLE2=Y Que Tu Quieres Que Haga
TTITLE3=El Macao
TTITLE4=La Titimanía
TTITLE5=Dime Cual Es
TTITLE6=Que Puedo Yo
TTITLE7=Lo Malo Que Tiene La Habana
TTITLE8=Adan y Eva
TTITLE9=Si Te Gusta Mi Compás
TTITLE10=Mimar Vocé
EXTD=YEAR: 2005
EXTT0=
EXTT1=
EXTT2=
EXTT3=
EXTT4=
EXTT5=
EXTT6=
EXTT7=
EXTT8=
EXTT9=
EXTT10=
PLAYORDER=
